<mxfile host="app.diagrams.net" modified="2024-04-03T03:31:31.324Z" agent="Mozilla/5.0 (Windows NT 10.0; Win64; x64; rv:124.0) Gecko/20100101 Firefox/124.0" etag="J9kcWvpWzvaioKkaApKS" version="24.2.1" type="device">
  <diagram name="Page-1" id="hp6kCX2fGKjsKk06hPH1">
    <mxGraphModel dx="890" dy="539" grid="1" gridSize="10" guides="1" tooltips="1" connect="1" arrows="1" fold="1" page="1" pageScale="1" pageWidth="850" pageHeight="1100" math="0" shadow="0">
      <root>
        <mxCell id="0" />
        <mxCell id="1" parent="0" />
        <mxCell id="tEPOHkf3wakfeFS-4S9a-1" value="" style="rounded=0;whiteSpace=wrap;html=1;" vertex="1" parent="1">
          <mxGeometry x="220" y="40" width="740" height="470" as="geometry" />
        </mxCell>
        <mxCell id="tEPOHkf3wakfeFS-4S9a-2" value="&lt;font style=&quot;font-size: 18px;&quot;&gt;Round: 5/10&lt;br&gt;&lt;/font&gt;" style="text;html=1;align=center;verticalAlign=middle;whiteSpace=wrap;rounded=0;" vertex="1" parent="1">
          <mxGeometry x="532.5" y="50" width="115" height="30" as="geometry" />
        </mxCell>
        <mxCell id="tEPOHkf3wakfeFS-4S9a-6" value="" style="rounded=0;whiteSpace=wrap;html=1;" vertex="1" parent="1">
          <mxGeometry x="220" y="260" width="240" height="40" as="geometry" />
        </mxCell>
        <mxCell id="tEPOHkf3wakfeFS-4S9a-9" value="" style="rounded=0;whiteSpace=wrap;html=1;" vertex="1" parent="1">
          <mxGeometry x="420" y="150" width="40" height="110" as="geometry" />
        </mxCell>
        <mxCell id="tEPOHkf3wakfeFS-4S9a-11" value="" style="rounded=0;whiteSpace=wrap;html=1;" vertex="1" parent="1">
          <mxGeometry x="460" y="150" width="240" height="40" as="geometry" />
        </mxCell>
        <mxCell id="tEPOHkf3wakfeFS-4S9a-12" value="" style="rounded=0;whiteSpace=wrap;html=1;" vertex="1" parent="1">
          <mxGeometry x="660" y="190" width="40" height="200" as="geometry" />
        </mxCell>
        <mxCell id="tEPOHkf3wakfeFS-4S9a-13" value="" style="rounded=0;whiteSpace=wrap;html=1;" vertex="1" parent="1">
          <mxGeometry x="700" y="350" width="110" height="40" as="geometry" />
        </mxCell>
        <mxCell id="tEPOHkf3wakfeFS-4S9a-14" value="" style="rounded=0;whiteSpace=wrap;html=1;" vertex="1" parent="1">
          <mxGeometry x="830" y="95" width="120" height="370" as="geometry" />
        </mxCell>
        <mxCell id="tEPOHkf3wakfeFS-4S9a-15" value="Store" style="text;html=1;align=center;verticalAlign=middle;whiteSpace=wrap;rounded=0;shadow=0;glass=0;fillColor=none;strokeColor=default;" vertex="1" parent="1">
          <mxGeometry x="830" y="95" width="120" height="30" as="geometry" />
        </mxCell>
        <mxCell id="tEPOHkf3wakfeFS-4S9a-16" value="Tower&lt;br&gt;&lt;br&gt;$300" style="rounded=0;whiteSpace=wrap;html=1;" vertex="1" parent="1">
          <mxGeometry x="845" y="140" width="90" height="70" as="geometry" />
        </mxCell>
        <mxCell id="tEPOHkf3wakfeFS-4S9a-17" value="Tower&lt;br&gt;&lt;br&gt;$300" style="rounded=0;whiteSpace=wrap;html=1;" vertex="1" parent="1">
          <mxGeometry x="845" y="300" width="90" height="70" as="geometry" />
        </mxCell>
        <mxCell id="tEPOHkf3wakfeFS-4S9a-18" value="Tower&lt;br&gt;&lt;br&gt;$300" style="rounded=0;whiteSpace=wrap;html=1;" vertex="1" parent="1">
          <mxGeometry x="845" y="220" width="90" height="70" as="geometry" />
        </mxCell>
        <mxCell id="tEPOHkf3wakfeFS-4S9a-19" value="Tower&lt;br&gt;&lt;br&gt;$300" style="rounded=0;whiteSpace=wrap;html=1;" vertex="1" parent="1">
          <mxGeometry x="845" y="380" width="90" height="70" as="geometry" />
        </mxCell>
        <mxCell id="tEPOHkf3wakfeFS-4S9a-20" value="" style="shape=flexArrow;endArrow=classic;html=1;rounded=0;" edge="1" parent="1">
          <mxGeometry width="50" height="50" relative="1" as="geometry">
            <mxPoint x="240" y="279.83" as="sourcePoint" />
            <mxPoint x="310" y="279.4966666666666" as="targetPoint" />
          </mxGeometry>
        </mxCell>
        <mxCell id="tEPOHkf3wakfeFS-4S9a-22" value="&lt;font style=&quot;font-size: 18px;&quot;&gt;Points: 500&lt;br&gt;&lt;/font&gt;" style="text;html=1;align=center;verticalAlign=middle;whiteSpace=wrap;rounded=0;" vertex="1" parent="1">
          <mxGeometry x="835" y="50" width="110" height="30" as="geometry" />
        </mxCell>
        <mxCell id="tEPOHkf3wakfeFS-4S9a-28" value="" style="rounded=0;whiteSpace=wrap;html=1;" vertex="1" parent="1">
          <mxGeometry x="400" y="420" width="380" height="90" as="geometry" />
        </mxCell>
        <mxCell id="tEPOHkf3wakfeFS-4S9a-24" value="Tower" style="rounded=0;whiteSpace=wrap;html=1;" vertex="1" parent="1">
          <mxGeometry x="429.29" y="450" width="70.71" height="55" as="geometry" />
        </mxCell>
        <mxCell id="tEPOHkf3wakfeFS-4S9a-25" value="Tower" style="rounded=0;whiteSpace=wrap;html=1;" vertex="1" parent="1">
          <mxGeometry x="589.29" y="450" width="70.71" height="55" as="geometry" />
        </mxCell>
        <mxCell id="tEPOHkf3wakfeFS-4S9a-26" value="Tower" style="rounded=0;whiteSpace=wrap;html=1;" vertex="1" parent="1">
          <mxGeometry x="509.29" y="450" width="70.71" height="55" as="geometry" />
        </mxCell>
        <mxCell id="tEPOHkf3wakfeFS-4S9a-27" value="Tower" style="rounded=0;whiteSpace=wrap;html=1;" vertex="1" parent="1">
          <mxGeometry x="669.29" y="450" width="70.71" height="55" as="geometry" />
        </mxCell>
        <mxCell id="tEPOHkf3wakfeFS-4S9a-29" value="Inventory" style="text;html=1;align=center;verticalAlign=middle;whiteSpace=wrap;rounded=0;" vertex="1" parent="1">
          <mxGeometry x="560" y="420" width="60" height="30" as="geometry" />
        </mxCell>
      </root>
    </mxGraphModel>
  </diagram>
</mxfile>
